<?xml version="1.0" encoding="UTF-8" standalone="no"?>
<!-- Created with Inkscape (http://www.inkscape.org/) -->

<svg
   width="123.40855mm"
   height="87.367348mm"
   viewBox="0 0 123.40855 87.367348"
   version="1.1"
   id="svg1"
   inkscape:version="1.4.2 (f4327f4, 2025-05-13)"
   sodipodi:docname="control_system_structure.svg"
   xml:space="preserve"
   xmlns:inkscape="http://www.inkscape.org/namespaces/inkscape"
   xmlns:sodipodi="http://sodipodi.sourceforge.net/DTD/sodipodi-0.dtd"
   xmlns="http://www.w3.org/2000/svg"
   xmlns:svg="http://www.w3.org/2000/svg"><sodipodi:namedview
     id="namedview1"
     pagecolor="#ffffff"
     bordercolor="#000000"
     borderopacity="0.25"
     inkscape:showpageshadow="2"
     inkscape:pageopacity="0.0"
     inkscape:pagecheckerboard="0"
     inkscape:deskcolor="#d1d1d1"
     inkscape:document-units="mm"
     inkscape:zoom="1.0167041"
     inkscape:cx="300.48075"
     inkscape:cy="196.71407"
     inkscape:window-width="1150"
     inkscape:window-height="1032"
     inkscape:window-x="855"
     inkscape:window-y="11"
     inkscape:window-maximized="0"
     inkscape:current-layer="layer1" /><defs
     id="defs1"><rect
       x="302.53784"
       y="441.46182"
       width="52.633579"
       height="45.747543"
       id="rect3-4" /><rect
       x="302.53784"
       y="441.46182"
       width="309.16364"
       height="244.0231"
       id="rect3-4-1" /><rect
       x="302.53784"
       y="441.46182"
       width="52.633579"
       height="45.747543"
       id="rect3-4-7" /><rect
       x="302.53784"
       y="441.46182"
       width="52.633579"
       height="45.747543"
       id="rect3-4-7-5" /><rect
       x="302.53784"
       y="441.46182"
       width="79.153839"
       height="39.55122"
       id="rect3-4-2" /><rect
       x="302.53784"
       y="441.46182"
       width="79.153839"
       height="39.55122"
       id="rect3-4-2-5" /><rect
       x="302.53784"
       y="441.46182"
       width="79.153839"
       height="39.55122"
       id="rect3-4-2-5-1" /><rect
       x="302.53784"
       y="441.46182"
       width="64.034813"
       height="54.918102"
       id="rect3-4-7-5-1" /><rect
       x="302.53784"
       y="441.46182"
       width="52.633579"
       height="45.747543"
       id="rect3-4-9" /><rect
       x="302.53784"
       y="441.46182"
       width="52.633579"
       height="45.747543"
       id="rect3-4-9-3" /><rect
       x="302.53784"
       y="441.46182"
       width="52.633579"
       height="45.747543"
       id="rect3-4-9-3-8" /><rect
       x="302.53784"
       y="441.46182"
       width="52.633579"
       height="45.747543"
       id="rect3-4-9-3-8-9" /><rect
       x="302.53784"
       y="441.46182"
       width="74.2227"
       height="31.073688"
       id="rect3-4-9-3-2" /><rect
       x="302.53784"
       y="441.46182"
       width="99.859783"
       height="28.375049"
       id="rect3-4-9-3-2-5" /><rect
       x="302.53784"
       y="441.46182"
       width="99.859779"
       height="28.37505"
       id="rect3-4-9-3-2-5-8" /><rect
       x="302.53784"
       y="441.46182"
       width="52.633579"
       height="45.747543"
       id="rect3-4-9-3-1" /><rect
       x="302.53784"
       y="441.46182"
       width="52.633579"
       height="45.747543"
       id="rect3-4-7-6" /></defs><g
     inkscape:label="Layer 1"
     inkscape:groupmode="layer"
     id="layer1"
     transform="translate(-41.793285,-52.187057)"><text
       xml:space="preserve"
       transform="matrix(0.37121787,0,0,0.37121787,-65.607327,-58.000206)"
       id="text3-2"
       style="font-size:13.1127px;font-family:Calibri;-inkscape-font-specification:'Calibri, Normal';text-align:center;writing-mode:lr-tb;direction:ltr;white-space:pre;shape-inside:url(#rect3-4);display:inline;fill:#000000;stroke:none;stroke-width:0.869291;stroke-dasharray:none;stroke-dashoffset:0"
       x="20.639059"
       y="0"><tspan
         x="303.80398"
         y="452.93455"
         id="tspan4">DAQ card</tspan></text><text
       xml:space="preserve"
       transform="matrix(0.37121787,0,0,0.37121787,-102.52507,-36.788755)"
       id="text3-2-03"
       style="font-size:13.1127px;font-family:Calibri;-inkscape-font-specification:'Calibri, Normal';text-align:center;writing-mode:lr-tb;direction:ltr;white-space:pre;shape-inside:url(#rect3-4-2);display:inline;fill:#000000;stroke:none;stroke-width:0.869291;stroke-dasharray:none;stroke-dashoffset:0"
       x="20.639059"
       y="0"><tspan
         x="328.44773"
         y="452.93455"
         id="tspan5">AOM
</tspan><tspan
         x="305.94869"
         y="469.32542"
         id="tspan6">TTL (ON/OFF)</tspan></text><text
       xml:space="preserve"
       transform="matrix(0.37121787,0,0,0.37121787,-73.973373,-36.706797)"
       id="text3-2-03-4"
       style="font-size:13.1127px;font-family:Calibri;-inkscape-font-specification:'Calibri, Normal';text-align:center;writing-mode:lr-tb;direction:ltr;white-space:pre;shape-inside:url(#rect3-4-2-5);display:inline;fill:#000000;stroke:none;stroke-width:0.869291;stroke-dasharray:none;stroke-dashoffset:0"
       x="20.639059"
       y="0"><tspan
         x="310.20007"
         y="452.93455"
         id="tspan7">Field Galvos
</tspan><tspan
         x="328.07957"
         y="469.32542"
         id="tspan8">X &amp; Y</tspan></text><text
       xml:space="preserve"
       transform="matrix(0.37121787,0,0,0.37121787,-45.499881,-36.256414)"
       id="text3-2-03-4-1"
       style="font-size:13.1127px;font-family:Calibri;-inkscape-font-specification:'Calibri, Normal';text-align:center;writing-mode:lr-tb;direction:ltr;white-space:pre;shape-inside:url(#rect3-4-2-5-1);display:inline;fill:#000000;stroke:none;stroke-width:0.869291;stroke-dasharray:none;stroke-dashoffset:0"
       x="20.639059"
       y="0"><tspan
         x="308.17042"
         y="452.93455"
         id="tspan9">Spiral Galvos
</tspan><tspan
         x="328.07957"
         y="469.32542"
         id="tspan10">X &amp; Y</tspan></text><text
       xml:space="preserve"
       transform="matrix(0.37121787,0,0,0.37121787,-9.3707382,-57.840192)"
       id="text3-2-7"
       style="font-size:13.1127px;font-family:Calibri;-inkscape-font-specification:'Calibri, Normal';text-align:center;writing-mode:lr-tb;direction:ltr;white-space:pre;shape-inside:url(#rect3-4-7);display:inline;fill:#000000;stroke:none;stroke-width:0.869291;stroke-dasharray:none;stroke-dashoffset:0"
       x="20.639059"
       y="0"><tspan
         x="317.48012"
         y="452.93455"
         id="tspan11">SLM</tspan></text><text
       xml:space="preserve"
       transform="matrix(0.37121787,0,0,0.37121787,-24.704688,-57.999716)"
       id="text3-2-7-2"
       style="font-size:13.1127px;font-family:Calibri;-inkscape-font-specification:'Calibri, Normal';text-align:center;writing-mode:lr-tb;direction:ltr;white-space:pre;shape-inside:url(#rect3-4-7-6);display:inline;fill:#000000;stroke:none;stroke-width:0.869291;stroke-dasharray:none;stroke-dashoffset:0"
       x="20.639059"
       y="0"><tspan
         x="312.53084"
         y="452.93455"
         id="tspan12">LASER</tspan></text><text
       xml:space="preserve"
       transform="matrix(0.37121787,0,0,0.37121787,5.5794012,-61.373098)"
       id="text3-2-7-8"
       style="font-size:13.1127px;font-family:Calibri;-inkscape-font-specification:'Calibri, Normal';text-align:center;writing-mode:lr-tb;direction:ltr;white-space:pre;shape-inside:url(#rect3-4-7-5);display:inline;fill:#000000;stroke:none;stroke-width:0.869291;stroke-dasharray:none;stroke-dashoffset:0"
       x="20.639059"
       y="0"><tspan
         x="319.21845"
         y="452.93455"
         id="tspan13">XYZ
</tspan><tspan
         x="311.72731"
         y="469.32542"
         id="tspan14">Stages</tspan></text><text
       xml:space="preserve"
       transform="matrix(0.37121787,0,0,0.37121787,21.937791,-59.024665)"
       id="text3-2-7-8-8"
       style="font-size:13.1127px;font-family:Calibri;-inkscape-font-specification:'Calibri, Normal';text-align:center;writing-mode:lr-tb;direction:ltr;white-space:pre;shape-inside:url(#rect3-4-7-5-1);display:inline;fill:#000000;stroke:none;stroke-width:0.869291;stroke-dasharray:none;stroke-dashoffset:0"
       x="20.639059"
       y="0"><tspan
         x="308.23645"
         y="452.93455"
         id="tspan15">IM sensor</tspan></text><text
       xml:space="preserve"
       transform="matrix(0.37121787,0,0,0.37121787,-10.640609,-62.358336)"
       id="text3-2-0"
       style="font-size:13.1127px;font-family:Calibri;-inkscape-font-specification:'Calibri, Normal';text-align:center;writing-mode:lr-tb;direction:ltr;white-space:pre;shape-inside:url(#rect3-4-1);display:inline;fill:#000000;stroke:none;stroke-width:0.869291;stroke-dasharray:none;stroke-dashoffset:0"
       x="20.639059"
       y="0" /><g
       style="fill:#000000"
       id="g9"
       transform="matrix(0.06793352,0,0,0.06793352,108.21511,52.187057)"><g
         id="g2">
	<g
   id="g1">
		<path
   d="M 355.3,0 H 129.5 C 107.2,0 89.1,18.1 89.1,40.4 v 390.7 c 0,22.2 18,40.3 40.2,40.4 0,7.4 6,13.5 13.5,13.5 h 31.8 c 7.4,0 13.5,-6 13.5,-13.5 h 108.8 c 0,7.4 6,13.5 13.5,13.5 h 31.8 c 7.4,0 13.5,-6 13.5,-13.5 22.2,-0.1 40.2,-18.2 40.2,-40.4 V 40.4 C 395.7,18.1 377.6,0 355.3,0 Z m 13.5,431.1 c 0,7.4 -6,13.5 -13.5,13.5 H 129.5 c -7.4,0 -13.5,-6 -13.5,-13.5 v -55.5 h 10.1 c 7.4,0 13.5,-6 13.5,-13.5 0,-7.4 -6,-13.5 -13.5,-13.5 H 116 v -26.9 h 37.1 c 7.4,0 13.5,-6 13.5,-13.5 0,-7.4 -6,-13.5 -13.5,-13.5 H 116 V 40.4 c 0,-7.4 6,-13.5 13.5,-13.5 h 225.8 c 7.4,0 13.5,6 13.5,13.5 z"
   id="path1-2" />
	</g>
</g><g
         id="g4">
	<g
   id="g3">
		<path
   d="m 328.4,53.9 h -172 c -7.4,0 -13.5,6 -13.5,13.5 v 59.3 c 0,7.4 6,13.5 13.5,13.5 h 172 c 7.4,0 13.5,-6 13.5,-13.5 V 67.4 c 0,-7.5 -6.1,-13.5 -13.5,-13.5 z m -13.5,59.3 h -145 V 80.8 h 145 z"
   id="path2" />
	</g>
</g><g
         id="g6">
	<g
   id="g5">
		<path
   d="m 328.4,167 h -172 c -7.4,0 -13.5,6 -13.5,13.5 v 59.3 c 0,7.4 6,13.5 13.5,13.5 h 172 c 7.4,0 13.5,-6 13.5,-13.5 v -59.3 c 0,-7.4 -6.1,-13.5 -13.5,-13.5 z m -13.5,59.3 h -145 V 194 h 145 z"
   id="path4" />
	</g>
</g><g
         id="g8">
	<g
   id="g7">
		<path
   d="m 242.4,312.7 c -7.4,0 -13.5,6 -13.5,13.5 v 27 c 0,7.4 6,13.5 13.5,13.5 7.5,0 13.5,-6 13.5,-13.5 v -27 c 0,-7.5 -6.1,-13.5 -13.5,-13.5 z"
   id="path6" />
	</g>
</g></g><path
       style="opacity:1;fill:none;fill-opacity:1;stroke:#000000;stroke-width:0.7;stroke-dasharray:none;stroke-opacity:1"
       d="M 50.727505,114.50398 27.82671,124.6532"
       id="path10" /><path
       style="opacity:1;fill:none;fill-opacity:1;stroke:#000000;stroke-width:0.7;stroke-dasharray:none;stroke-opacity:1"
       d="m 53.85034,115.02446 v 10.14921"
       id="path11" /><path
       style="fill:none;fill-opacity:1;stroke:#000000;stroke-width:0.7;stroke-dasharray:none;stroke-opacity:1"
       d="m 112.28643,87.408134 0.13936,18.127236"
       id="path11-9"
       sodipodi:nodetypes="cc" /><path
       style="fill:none;fill-opacity:1;stroke:#000000;stroke-width:0.7;stroke-dasharray:none;stroke-opacity:1"
       d="m 126.44785,87.695643 0.15244,14.537817"
       id="path11-9-9"
       sodipodi:nodetypes="cc" /><path
       style="fill:none;fill-opacity:1;stroke:#000000;stroke-width:0.7;stroke-dasharray:none;stroke-opacity:1"
       d="m 140.06474,87.829272 0.0699,16.039938"
       id="path11-9-9-4"
       sodipodi:nodetypes="cc" /><path
       style="fill:none;fill-opacity:1;stroke:#000000;stroke-width:0.7;stroke-dasharray:none;stroke-opacity:1"
       d="M 141.2894,87.260336 56.071562,87.458079"
       id="path11-1"
       sodipodi:nodetypes="cc" /><path
       style="fill:none;fill-opacity:1;stroke:#000000;stroke-width:0.7;stroke-dasharray:none;stroke-opacity:1"
       d="M 55.695621,105.36067 55.865908,87.068367"
       id="path11-1-5"
       sodipodi:nodetypes="cc" /><path
       style="fill:none;fill-opacity:1;stroke:#000000;stroke-width:0.7;stroke-dasharray:none;stroke-opacity:1"
       d="M 97.367287,105.53803 97.537574,87.245725"
       id="path11-1-5-9"
       sodipodi:nodetypes="cc" /><path
       style="opacity:1;fill:none;fill-opacity:1;stroke:#000000;stroke-width:0.7;stroke-dasharray:none;stroke-opacity:1"
       d="m 57.49365,114.24375 20.558617,11.19016"
       id="path12" /><rect
       style="opacity:1;fill:#ffffff;fill-opacity:1;stroke:#000000;stroke-width:0.080231;stroke-dasharray:none;stroke-opacity:1"
       id="rect12"
       width="7.6730433"
       height="3.6538301"
       x="109.04636"
       y="93.480438" /><rect
       style="fill:#ffffff;fill-opacity:1;stroke:#000000;stroke-width:0.0819102;stroke-dasharray:none;stroke-opacity:1"
       id="rect12-8"
       width="7.8336329"
       height="3.7303014"
       x="51.225891"
       y="93.640228" /><text
       xml:space="preserve"
       transform="matrix(0.26716057,0,0,0.26716057,24.827741,-24.590064)"
       id="text3-2-5"
       style="font-size:13.1127px;font-family:Calibri;-inkscape-font-specification:'Calibri, Normal';text-align:center;writing-mode:lr-tb;direction:ltr;white-space:pre;shape-inside:url(#rect3-4-9);display:inline;fill:#000000;stroke:none;stroke-width:0.869291;stroke-dasharray:none;stroke-dashoffset:0"
       x="20.639059"
       y="0"><tspan
         x="317.05754"
         y="452.93455"
         id="tspan16">PCIe</tspan></text><text
       xml:space="preserve"
       transform="matrix(0.272752,0,0,0.272752,-34.570547,-26.922966)"
       id="text3-2-5-3"
       style="font-size:13.1127px;font-family:Calibri;-inkscape-font-specification:'Calibri, Normal';text-align:center;writing-mode:lr-tb;direction:ltr;white-space:pre;shape-inside:url(#rect3-4-9-3);display:inline;fill:#000000;stroke:none;stroke-width:0.869291;stroke-dasharray:none;stroke-dashoffset:0"
       x="20.639059"
       y="0"><tspan
         x="318.06917"
         y="452.93455"
         id="tspan17">USB</tspan></text><rect
       style="fill:#ffffff;fill-opacity:1;stroke:#000000;stroke-width:0.0875017;stroke-dasharray:none;stroke-opacity:1"
       id="rect12-8-3"
       width="8.3683872"
       height="3.9849463"
       x="93.662598"
       y="93.467117" /><text
       xml:space="preserve"
       transform="matrix(0.272752,0,0,0.272752,8.1434754,-27.098869)"
       id="text3-2-5-3-25"
       style="font-size:13.1127px;font-family:Calibri;-inkscape-font-specification:'Calibri, Normal';text-align:center;writing-mode:lr-tb;direction:ltr;white-space:pre;shape-inside:url(#rect3-4-9-3-1);display:inline;fill:#000000;stroke:none;stroke-width:0.869291;stroke-dasharray:none;stroke-dashoffset:0"
       x="20.639059"
       y="0"><tspan
         x="314.59251"
         y="452.93455"
         id="tspan18">serial</tspan></text><text
       xml:space="preserve"
       transform="matrix(0.272752,0,0,0.272752,-57.659336,-6.7543844)"
       id="text3-2-5-3-5"
       style="font-size:13.1127px;font-family:Calibri;-inkscape-font-specification:'Calibri, Normal';text-align:center;writing-mode:lr-tb;direction:ltr;white-space:pre;shape-inside:url(#rect3-4-9-3-2);display:inline;fill:#000080;stroke:none;stroke-width:0.869291;stroke-dasharray:none;stroke-dashoffset:0"
       x="20.639059"
       y="0"><tspan
         x="312.75075"
         y="452.93455"
         id="tspan19">Digital I/O</tspan></text><text
       xml:space="preserve"
       transform="matrix(0.272752,0,0,0.272752,-42.339932,-1.1509765)"
       id="text3-2-5-3-5-2"
       style="font-size:13.1127px;font-family:Calibri;-inkscape-font-specification:'Calibri, Normal';text-align:center;writing-mode:lr-tb;direction:ltr;white-space:pre;shape-inside:url(#rect3-4-9-3-2-5);display:inline;fill:#1a1a1a;stroke:none;stroke-width:0.869291;stroke-dasharray:none;stroke-dashoffset:0"
       x="20.639059"
       y="0"><tspan
         x="315.04087"
         y="452.93455"
         id="tspan20">analog +/-10V</tspan></text><text
       xml:space="preserve"
       transform="matrix(0.272752,0,0,0.272752,-19.5111,-2.2604628)"
       id="text3-2-5-3-5-2-1"
       style="font-size:13.1127px;font-family:Calibri;-inkscape-font-specification:'Calibri, Normal';text-align:center;writing-mode:lr-tb;direction:ltr;white-space:pre;shape-inside:url(#rect3-4-9-3-2-5-8);display:inline;fill:#1a1a1a;stroke:none;stroke-width:0.869291;stroke-dasharray:none;stroke-dashoffset:0"
       x="20.639059"
       y="0"><tspan
         x="315.04087"
         y="452.93455"
         id="tspan21">analog +/-10V</tspan></text><rect
       style="fill:#ffffff;fill-opacity:1;stroke:#000000;stroke-width:0.0923832;stroke-dasharray:none;stroke-opacity:1"
       id="rect12-8-2"
       width="8.8352413"
       height="4.2072577"
       x="121.9937"
       y="93.481758" /><text
       xml:space="preserve"
       transform="matrix(0.26462393,0,0,0.26462393,39.48988,-23.3701)"
       id="text3-2-5-3-2"
       style="font-size:13.1127px;font-family:Calibri;-inkscape-font-specification:'Calibri, Normal';text-align:center;writing-mode:lr-tb;direction:ltr;white-space:pre;shape-inside:url(#rect3-4-9-3-8);display:inline;fill:#000000;stroke:none;stroke-width:0.869291;stroke-dasharray:none;stroke-dashoffset:0"
       x="20.639059"
       y="0"><tspan
         x="314.59251"
         y="452.93455"
         id="tspan22">serial</tspan></text><rect
       style="fill:#ffffff;fill-opacity:1;stroke:#000000;stroke-width:0.0923832;stroke-dasharray:none;stroke-opacity:1"
       id="rect12-8-2-8"
       width="8.8352413"
       height="4.2072577"
       x="135.85707"
       y="93.634331" /><text
       xml:space="preserve"
       transform="matrix(0.26462393,0,0,0.26462393,53.353263,-23.217534)"
       id="text3-2-5-3-2-1"
       style="font-size:13.1127px;font-family:Calibri;-inkscape-font-specification:'Calibri, Normal';text-align:center;writing-mode:lr-tb;direction:ltr;white-space:pre;shape-inside:url(#rect3-4-9-3-8-9);display:inline;fill:#000000;stroke:none;stroke-width:0.869291;stroke-dasharray:none;stroke-dashoffset:0"
       x="20.639059"
       y="0"><tspan
         x="318.06917"
         y="452.93455"
         id="tspan23">USB</tspan></text></g></svg>
